<?xml version="1.0" standalone="no"?>
<!DOCTYPE svg PUBLIC "-//W3C//DTD SVG 20010904//EN"
 "http://www.w3.org/TR/2001/REC-SVG-20010904/DTD/svg10.dtd">
<svg version="1.0" xmlns="http://www.w3.org/2000/svg"
 width="900.000000pt" height="900.000000pt" viewBox="0 0 900.000000 900.000000"
 preserveAspectRatio="xMidYMid meet">

<g transform="translate(0.000000,900.000000) scale(0.100000,-0.100000)"
fill="#000000" stroke="none">
<path d="M0 4500 l0 -4500 4500 0 4500 0 0 4500 0 4500 -4500 0 -4500 0 0
-4500z m1722 1283 c9 -10 127 -236 263 -503 136 -267 272 -533 303 -592 l55
-108 49 0 49 0 61 128 c33 70 73 154 88 188 16 33 88 189 160 345 146 313 176
379 226 487 l33 72 408 -2 408 -3 3 -30 c2 -23 -72 -183 -314 -670 -174 -352
-349 -707 -389 -790 -68 -141 -625 -1269 -773 -1565 l-67 -135 -400 -3 c-220
-1 -406 0 -412 3 -14 5 5 48 197 440 67 138 167 342 221 454 l99 204 -91 166
c-51 91 -164 297 -252 456 -88 160 -194 353 -237 430 -42 77 -141 257 -220
400 -79 143 -183 332 -232 419 -80 145 -100 200 -81 219 3 4 192 7 418 7 380
0 413 -1 427 -17z m3108 3 c0 -8 -111 -238 -246 -513 -136 -274 -295 -597
-354 -718 -59 -121 -241 -490 -404 -820 -164 -330 -356 -720 -428 -867 l-131
-268 -424 0 c-236 0 -423 4 -423 9 0 5 145 300 321 657 177 357 354 717 394
799 40 83 202 411 360 730 158 319 334 676 391 793 l104 212 420 0 c355 0 420
-2 420 -14z m980 0 c0 -18 -99 -220 -927 -1896 -143 -289 -344 -697 -448 -907
l-188 -383 -424 0 c-233 0 -423 2 -423 5 0 7 147 309 410 840 269 545 546
1105 770 1560 246 501 381 769 392 783 8 9 105 12 424 12 351 0 414 -2 414
-14z m984 6 c2 -4 -52 -122 -121 -262 -69 -140 -196 -399 -283 -575 -358 -727
-782 -1586 -1085 -2197 l-78 -158 -423 0 c-233 0 -424 2 -424 4 0 4 241 495
570 1161 117 237 274 556 350 710 375 763 642 1300 652 1312 8 10 94 13 424
13 227 0 415 -4 418 -8z m301 -62 c150 -73 251 -175 321 -327 51 -108 67 -189
61 -313 -6 -130 -30 -205 -117 -360 -34 -61 -60 -117 -57 -123 2 -7 37 -20 77
-31 153 -39 277 -112 380 -224 157 -170 230 -416 217 -732 -7 -175 -38 -296
-112 -445 -142 -287 -373 -469 -693 -547 -85 -21 -109 -22 -949 -25 -475 -2
-863 -1 -863 2 0 2 69 142 152 310 l152 304 656 3 655 3 57 23 c157 64 247
204 256 398 5 116 -7 182 -46 262 -88 180 -291 262 -655 262 -79 0 -109 3
-113 13 -2 7 30 85 72 173 294 613 284 591 284 641 0 86 -61 160 -140 170 -25
4 -40 11 -40 19 0 8 65 145 146 305 l145 291 37 -7 c20 -3 73 -24 117 -45z"/>
</g>
</svg>
