<?xml version="1.0" standalone="no"?>
<!DOCTYPE svg PUBLIC "-//W3C//DTD SVG 20010904//EN"
 "http://www.w3.org/TR/2001/REC-SVG-20010904/DTD/svg10.dtd">
<svg version="1.0" xmlns="http://www.w3.org/2000/svg"
 width="1000.000000pt" height="1000.000000pt" viewBox="0 0 1000.000000 1000.000000"
 preserveAspectRatio="xMidYMid meet">

<g transform="translate(0.000000,1000.000000) scale(0.100000,-0.100000)"
fill="#000000" stroke="none">
<path d="M1317 6853 c-24 -24 -25 -23 413 -813 87 -157 185 -334 218 -395 69
-128 111 -203 292 -530 174 -315 230 -420 230 -434 0 -11 -49 -115 -235 -496
-256 -525 -305 -630 -301 -642 4 -10 88 -13 418 -13 227 0 418 4 425 8 7 4 97
181 201 392 104 212 299 606 432 875 133 270 297 603 365 740 68 138 234 474
369 749 175 354 246 508 246 532 l0 34 -424 0 c-327 0 -426 -3 -433 -12 -6 -7
-65 -132 -133 -278 -67 -146 -149 -321 -181 -389 -33 -68 -59 -125 -59 -127 0
-2 -23 -52 -51 -111 -28 -60 -74 -157 -101 -218 -28 -60 -55 -116 -60 -122
-11 -14 -76 -17 -94 -5 -11 7 -62 103 -325 617 -73 143 -177 346 -230 450
l-98 190 -439 3 c-241 1 -442 -1 -445 -5z"/>
<path d="M4541 6838 c-5 -13 -152 -311 -326 -663 -174 -352 -350 -707 -390
-790 -40 -82 -213 -433 -385 -780 -432 -872 -521 -1056 -514 -1066 6 -11 854
-12 871 -1 6 4 67 120 134 257 67 138 236 482 376 765 141 283 307 621 370
750 64 129 257 521 430 870 172 349 316 645 319 657 l6 23 -441 0 -441 0 -9
-22z"/>
<path d="M5404 6523 c-92 -186 -248 -502 -347 -703 -98 -201 -244 -495 -322
-655 -78 -159 -265 -537 -415 -840 -149 -302 -297 -601 -327 -663 -36 -73 -53
-116 -46 -123 6 -6 172 -8 439 -7 l429 3 215 430 c118 237 304 610 412 830
108 220 316 641 461 935 382 773 547 1111 547 1121 0 5 -192 9 -440 9 l-440 0
-166 -337z"/>
<path d="M6355 6387 c-128 -260 -300 -610 -383 -777 -82 -168 -250 -507 -372
-755 -536 -1084 -640 -1300 -636 -1312 4 -9 96 -12 424 -13 231 0 427 3 437 6
17 7 89 150 635 1259 348 706 509 1033 754 1529 141 285 256 523 256 527 0 5
-197 9 -441 9 l-440 0 -234 -473z"/>
<path d="M7608 6827 c-7 -12 -78 -155 -159 -317 l-146 -295 38 -7 c72 -13 111
-42 144 -107 28 -56 16 -119 -47 -251 -234 -481 -306 -635 -308 -651 -5 -35 0
-36 198 -42 155 -4 214 -10 277 -26 211 -55 320 -164 361 -359 44 -209 -32
-423 -183 -520 -96 -62 -100 -62 -825 -62 -513 0 -660 -3 -668 -12 -6 -7 -80
-152 -164 -323 -101 -205 -149 -313 -142 -317 6 -4 380 -8 831 -7 919 0 964 3
1154 68 345 119 596 395 696 767 53 196 41 502 -27 699 -92 266 -260 430 -533
519 -44 14 -87 26 -97 26 -10 0 -18 6 -18 13 0 6 27 62 60 122 83 150 107 215
121 323 29 218 -45 427 -210 593 -62 62 -93 85 -171 122 -52 25 -112 50 -133
55 -33 9 -38 8 -49 -11z"/>
</g>
</svg>
